<?xml version='1.0' encoding='utf-8'?>
<svg xmlns="http://www.w3.org/2000/svg" version="1.1" width="516" height="714" viewBox="521 380 516 714">
<path d="M0 0 C2.852 0.609 2.852 0.609 6 2 C7.164 4.253 7.791 5.853 8.375 8.25 C8.539 8.811 8.702 9.371 8.871 9.949 C9.9 13.694 10.152 17.133 10 21 C10.66 21 11.32 21 12 21 C12.115 21.413 12.115 21.413 12.699 23.5 C14.498 29.886 16.368 36.239 18.375 42.562 C20.447 49.119 22.406 55.706 24.312 62.312 C24.579 63.227 24.846 64.141 25.121 65.082 C25.366 65.938 25.611 66.794 25.863 67.676 C25.973 68.057 25.973 68.057 26.529 69.986 C27 72 27 72 27 75 C27.66 75 28.32 75 29 75 C29 76.65 29 78.3 29 80 C29.66 80 30.32 80 31 80 C31.072 80.526 31.072 80.526 31.438 83.188 C31.859 86.149 32.379 89.073 33 92 C33.66 92 34.32 92 35 92 C35.106 93.124 35.211 94.248 35.32 95.406 C35.935 100.305 37.336 104.823 38.875 109.5 C39.003 109.902 39.003 109.902 39.652 111.934 C40.878 115.735 42.169 119.494 43.602 123.223 C44.82 126.42 45.731 129.599 46.5 132.938 C48.056 139.671 50.348 146.118 52.605 152.641 C53.133 154.177 53.66 155.714 54.188 157.25 C54.46 158.026 54.733 158.802 55.014 159.602 C56.346 163.515 57.378 166.803 57 171 C57.66 171 58.32 171 59 171 C59.159 171.608 59.317 172.217 59.48 172.844 C62.179 182.983 65.265 193.019 68.688 202.938 C69.647 205.753 70.35 208.521 70.938 211.438 C71.603 214.625 72.532 217.445 73.812 220.438 C75.866 225.334 77.33 230.33 78.75 235.438 C78.861 235.834 78.861 235.834 79.425 237.844 C80.297 241.038 81 243.667 81 247 C81.66 247 82.32 247 83 247 C83.33 250.3 83.66 253.6 84 257 C84.66 257 85.32 257 86 257 C86.161 257.568 86.322 258.136 86.487 258.721 C88.058 264.263 89.641 269.801 91.235 275.336 C91.702 276.964 92.168 278.593 92.628 280.222 C93.139 282.026 93.661 283.826 94.188 285.625 C94.47 286.607 94.752 287.59 95.043 288.602 C96.024 291.061 96.99 292.313 99 294 C98.34 294 97.68 294 97 294 C100.785 306.43 100.785 306.43 102.5 311.5 C104.112 316.265 105.572 321.075 107.035 325.887 C108.284 329.915 109.623 333.908 111 337.895 C112.529 342.357 114.028 346.741 114.938 351.375 C115.743 355.346 117.041 359.08 118.438 362.875 C124 378.003 124 378.003 124 384 C124.66 384.33 125.32 384.66 126 385 C126.57 387.258 126.57 387.258 127 390 C128.715 399.696 128.715 399.696 130.562 403.562 C132.221 407.037 132.478 410.364 132.691 414.18 C132.793 414.78 132.895 415.381 133 416 C133.66 416.33 134.32 416.66 135 417 C135.344 418.855 135.344 418.855 135.5 421.188 C135.782 425.325 136.6 427.801 138 432 C163.08 432.33 188.16 432.66 214 433 C214 432.34 214 431.68 214 431 C215.98 430.67 217.96 430.34 220 430 C220.023 408.842 220.041 387.683 220.052 366.525 C220.057 356.7 220.064 346.874 220.075 337.049 C220.085 328.481 220.092 319.913 220.094 311.345 C220.095 306.812 220.098 302.279 220.106 297.747 C220.113 293.471 220.115 289.196 220.113 284.92 C220.113 283.36 220.115 281.8 220.119 280.239 C220.178 255.155 220.178 255.155 217.062 245.438 C216.893 244.862 216.723 244.286 216.549 243.693 C214.908 238.271 213.825 235.047 208.75 232.25 C204.883 230.207 202.318 229.446 198 230 C198 227.69 198 225.38 198 223 C205.398 220.652 212.629 220.725 220.309 220.77 C221.685 220.771 223.061 220.771 224.437 220.771 C227.304 220.772 230.171 220.781 233.038 220.794 C236.719 220.811 240.4 220.815 244.081 220.814 C246.914 220.815 249.748 220.82 252.581 220.827 C253.94 220.83 255.298 220.832 256.657 220.833 C258.545 220.835 260.434 220.844 262.322 220.855 C263.397 220.859 264.472 220.862 265.58 220.866 C268 221 268 221 269 222 C269.25 224.938 269.25 224.938 269 228 C267.301 229.869 266.323 229.982 263.812 230.125 C263.214 230.084 262.616 230.043 262 230 C261.67 231.32 261.34 232.64 261 234 C259.02 234 257.04 234 255 234 C253.103 239.154 251.668 243.981 251.211 249.469 C251 251 251 251 250 252 C249.745 254.464 249.571 256.896 249.446 259.368 C249.403 260.199 249.361 261.029 249.318 261.884 C248.707 275.761 248.859 289.663 248.869 303.549 C248.872 307.941 248.868 312.333 248.865 316.725 C248.861 325.302 248.862 333.878 248.865 342.455 C248.867 349.428 248.867 356.4 248.866 363.373 C248.866 364.369 248.866 365.365 248.866 366.391 C248.865 368.414 248.865 370.438 248.865 372.462 C248.862 391.388 248.865 410.314 248.871 429.239 C248.875 445.461 248.874 461.682 248.87 477.903 C248.864 496.776 248.862 515.649 248.865 534.523 C248.866 536.536 248.866 538.55 248.866 540.564 C248.866 541.554 248.866 542.545 248.867 543.565 C248.868 550.529 248.866 557.493 248.864 564.456 C248.861 572.943 248.862 581.429 248.867 589.916 C248.87 594.242 248.871 598.567 248.867 602.893 C248.864 606.858 248.866 610.823 248.871 614.789 C248.872 616.217 248.872 617.645 248.869 619.074 C248.833 641.986 248.833 641.986 252 650.625 C252.351 651.607 252.701 652.59 253.062 653.602 C254 656 254 656 255 658 C255.99 658.33 256.98 658.66 258 659 C258 659.99 258 660.98 258 662 C258.66 662 259.32 662 260 662 C260.33 661.34 260.66 660.68 261 660 C261 660.66 261 661.32 261 662 C262.65 662 264.3 662 266 662 C266 662.99 266 663.98 266 665 C266.99 665 267.98 665 269 665 C269.381 666.991 269.713 668.993 270 671 C268.442 672.558 266.758 672.125 264.668 672.136 C264.051 672.134 263.435 672.131 262.8 672.129 C262.152 672.131 261.505 672.133 260.838 672.135 C258.688 672.139 256.537 672.136 254.387 672.133 C252.896 672.133 251.404 672.134 249.913 672.136 C246.782 672.137 243.65 672.135 240.519 672.13 C236.507 672.125 232.496 672.128 228.484 672.134 C225.401 672.138 222.319 672.136 219.237 672.134 C217.758 672.133 216.279 672.134 214.8 672.136 C212.73 672.139 210.659 672.135 208.589 672.129 C207.978 672.131 207.368 672.133 206.738 672.136 C203.673 672.12 200.935 671.909 198 671 C198.875 666.25 198.875 666.25 200 664 C202.553 663.114 205.136 662.464 207.75 661.781 C210 661 210 661 211 659 C210.34 658.67 209.68 658.34 209 658 C210.65 658 212.3 658 214 658 C215.858 654.865 216.201 652.625 216 649 C216.66 649 217.32 649 218 649 C220.483 630.263 220.248 611.572 220.17 592.713 C220.153 588.151 220.149 583.589 220.144 579.027 C220.133 570.41 220.112 561.793 220.087 553.176 C220.043 537.731 220.01 522.286 219.987 506.84 C219.979 501.433 219.965 496.027 219.946 490.62 C219.936 487.254 219.929 483.888 219.923 480.523 C219.92 478.973 219.915 477.423 219.908 475.873 C219.87 467.52 220.024 459.312 221 451 C219.68 451 218.36 451 217 451 C217 450.01 217 449.02 217 448 C205.342 447.219 193.677 446.785 182 446.438 C181.257 446.415 180.514 446.393 179.748 446.37 C170.565 446.102 161.387 445.872 152.199 446.037 C148.351 446.09 144.777 445.741 141 445 C141.242 445.874 141.485 446.748 141.734 447.648 C143.656 454.669 145.41 461.696 146.938 468.812 C148.455 475.862 150.248 482.797 152.25 489.724 C153.513 494.115 154.596 498.51 155.542 502.98 C155.971 504.873 156.486 506.709 157.062 508.562 C158.182 512.318 158.616 516.109 159 520 C159.99 520 160.98 520 162 520 C161.897 521.072 161.794 522.145 161.688 523.25 C161.64 528.509 163.772 532.777 165.906 537.461 C167 540 167 540 167 542 C167.99 542 168.98 542 170 542 C170.227 542.763 170.454 543.526 170.688 544.312 C172.308 547.631 173.718 548.397 177 550 C177.887 550.289 178.774 550.577 179.688 550.875 C182 552 182 552 183.312 554.625 C183.539 555.409 183.766 556.192 184 557 C179.022 560.004 175.444 560.351 169.707 560.039 C168.92 560.01 168.134 559.981 167.323 559.952 C164.819 559.858 162.316 559.743 159.812 559.625 C156.528 559.483 153.243 559.35 149.957 559.227 C149.168 559.196 148.379 559.166 147.566 559.135 C142.394 558.967 137.377 559.15 132.229 559.747 C129.135 560.098 126.114 560.133 123 560.125 C122.464 560.126 122.464 560.126 119.75 560.133 C117 560 117 560 114 559 C114 559.66 114 560.32 114 561 C113.01 561 112.02 561 111 561 C111 560.34 111 559.68 111 559 C109.35 558.67 107.7 558.34 106 558 C106.33 556.02 106.66 554.04 107 552 C109.31 551.34 111.62 550.68 114 550 C114 549.34 114 548.68 114 548 C113.34 547.67 112.68 547.34 112 547 C113.65 547.33 115.3 547.66 117 548 C117.33 546.35 117.66 544.7 118 543 C118.99 543.33 119.98 543.66 121 544 C122.11 540.669 122.111 537.768 122.062 534.312 C122.058 533.706 122.053 533.099 122.049 532.475 C122.037 530.983 122.019 529.492 122 528 C122.66 528 123.32 528 124 528 C123.867 527.348 123.734 526.695 123.598 526.023 C123.421 525.149 123.244 524.275 123.062 523.375 C122.878 522.466 122.694 521.557 122.504 520.621 C122.107 518.559 121.78 516.517 121.5 514.438 C121.335 513.633 121.17 512.829 121 512 C120.34 511.67 119.68 511.34 119 511 C119 507.7 119 504.4 119 501 C118.34 501 117.68 501 117 501 C116.963 500.725 116.963 500.725 116.773 499.332 C115.419 490.767 112.951 482.573 110.523 474.262 C109.025 469.128 107.63 463.972 106.293 458.794 C105.585 456.077 104.805 453.434 103.891 450.777 C103 448 103 448 103 445 C80.733 445.955 80.733 445.955 73 452 C72.34 452 71.68 452 71 452 C71 452.99 71 453.98 71 455 C70.34 455 69.68 455 69 455 C68.732 455.722 68.464 456.444 68.188 457.188 C67 460 67 460 65.523 462.312 C55.028 480.828 58.69 509.946 58.731 530.721 C58.737 534.19 58.732 537.66 58.729 541.13 C58.725 546.942 58.73 552.753 58.739 558.564 C58.75 565.232 58.747 571.9 58.736 578.568 C58.726 584.359 58.725 590.149 58.73 595.94 C58.734 599.371 58.734 602.801 58.727 606.231 C58.686 630.583 58.686 630.583 59.868 640.926 C59.905 641.251 59.905 641.251 60.093 642.897 C60.831 648.312 62.437 653.748 66 658 C67.328 658.355 68.661 658.691 70 659 C70.33 659.99 70.66 660.98 71 662 C72.98 662.33 74.96 662.66 77 663 C77 663.66 77 664.32 77 665 C78.65 665.33 80.3 665.66 82 666 C82.33 667.32 82.66 668.64 83 670 C80.087 672.724 76.602 672.266 72.866 672.227 C72.144 672.227 71.422 672.228 70.678 672.228 C68.292 672.227 65.906 672.211 63.52 672.195 C61.865 672.192 60.21 672.189 58.555 672.187 C54.2 672.179 49.845 672.159 45.49 672.137 C41.046 672.117 36.602 672.108 32.158 672.098 C23.439 672.076 14.719 672.042 6 672 C4.875 667.25 4.875 667.25 6 665 C7.82 664.289 7.82 664.289 10.125 663.625 C14.82 662.142 19.945 660.476 23.184 656.574 C24.464 654.105 24.121 651.724 24 649 C24.66 649 25.32 649 26 649 C26.195 647.709 26.381 646.417 26.562 645.125 C26.667 644.406 26.771 643.686 26.879 642.945 C27 641 27 641 26 639 C26.99 639 27.98 639 29 639 C29 602.7 29 566.4 29 529 C28.01 528.67 27.02 528.34 26 528 C25.948 528.32 25.948 528.32 25.688 529.938 C24.405 535.651 22.628 540.983 19.812 546.125 C17.79 549.955 17.643 552.713 18 557 C17.01 556.67 16.02 556.34 15 556 C14.938 556.289 14.938 556.289 14.625 557.75 C14 560 14 560 12.938 561.875 C11.71 564.657 11.863 566.995 12 570 C11.01 570 10.02 570 9 570 C8.818 570.58 8.636 571.16 8.449 571.758 C7.281 575.387 6.142 578.926 4.375 582.312 C3 585 3 585 2.438 587.312 C2.293 587.869 2.149 588.426 2 589 C1.34 589.33 0.68 589.66 0 590 C-0.33 590.99 -0.66 591.98 -1 593 C-1.66 593 -2.32 593 -3 593 C-3.098 593.531 -3.196 594.062 -3.297 594.609 C-3.446 595.316 -3.596 596.022 -3.75 596.75 C-3.889 597.446 -4.028 598.142 -4.172 598.859 C-5.238 601.615 -6.899 602.921 -9 605 C-11.084 607.98 -12.934 611.111 -14.82 614.219 C-15.202 614.832 -15.583 615.446 -15.977 616.078 C-16.318 616.639 -16.659 617.2 -17.01 617.778 C-17.337 618.181 -17.663 618.585 -18 619 C-18.66 619 -19.32 619 -20 619 C-20.062 619.299 -20.062 619.299 -20.375 620.812 C-20.984 622.943 -21.571 624.318 -23 626 C-23.66 626 -24.32 626 -25 626 C-24.67 627.32 -24.34 628.64 -24 630 C-24.743 630.247 -25.485 630.495 -26.25 630.75 C-29.295 632.134 -30.915 633.394 -33 636 C-33.625 638.562 -33.625 638.562 -34 641 C-34.75 642.75 -34.75 642.75 -36 644 C-37.667 644.333 -39.333 644.667 -41 645 C-42.062 646.438 -42.062 646.438 -43 648 C-44.325 648.684 -45.659 649.35 -47 650 C-47.433 650.454 -47.866 650.908 -48.312 651.375 C-50.277 653.266 -52.446 654.443 -54.82 655.758 C-57.548 657.312 -60.216 658.956 -62.875 660.625 C-63.821 661.215 -64.767 661.806 -65.742 662.414 C-68 664 -68 664 -69 666 C-71.504 666.414 -71.504 666.414 -74.562 666.625 C-75.574 666.7 -76.586 666.775 -77.629 666.852 C-78.411 666.901 -79.194 666.95 -80 667 C-80 667.66 -80 668.32 -80 669 C-96.452 673.716 -96.452 673.716 -105 674 C-105.578 674.02 -106.157 674.041 -106.752 674.062 C-121.897 674.527 -139.22 674.062 -152.09 665.262 C-154.082 663.946 -156.1 662.909 -158.25 661.875 C-161.1 660.498 -163.496 658.948 -166 657 C-166.99 656.67 -167.98 656.34 -169 656 C-169 655.34 -169 654.68 -169 654 C-169.99 654 -170.98 654 -172 654 C-172 653.34 -172 652.68 -172 652 C-172.99 652.33 -173.98 652.66 -175 653 C-175 651.68 -175 650.36 -175 649 C-175.99 648.67 -176.98 648.34 -178 648 C-178 647.01 -178 646.02 -178 645 C-179.32 644.67 -180.64 644.34 -182 644 C-182.144 643.237 -182.289 642.474 -182.438 641.688 C-183 639 -183 639 -184 636 C-184.66 636 -185.32 636 -186 636 C-186.413 635.134 -186.825 634.267 -187.25 633.375 C-188.402 631.043 -189.69 628.939 -191.188 626.812 C-193 624 -193 624 -193 621 C-193.66 621 -194.32 621 -195 621 C-195.193 620.229 -195.387 619.458 -195.586 618.664 C-195.846 617.661 -196.107 616.658 -196.375 615.625 C-196.63 614.627 -196.885 613.63 -197.148 612.602 C-198 610 -198 610 -200 608 C-200.419 605.754 -200.746 603.577 -201 601.312 C-201.427 597.629 -201.908 594.1 -202.984 590.543 C-206.715 578.094 -206.123 565.002 -205.312 552.188 C-205.274 551.539 -205.236 550.89 -205.196 550.222 C-204.689 541.991 -203.58 534.132 -201.714 526.096 C-200.85 522.349 -200.176 518.583 -199.527 514.793 C-199.353 514.201 -199.179 513.61 -199 513 C-198.34 512.67 -197.68 512.34 -197 512 C-197 509.36 -197 506.72 -197 504 C-196.01 504 -195.02 504 -194 504 C-194 502.02 -194 500.04 -194 498 C-193.34 498 -192.68 498 -192 498 C-191.878 497.441 -191.755 496.881 -191.629 496.305 C-188.971 486.566 -183.102 477.62 -178 469 C-177.743 468.56 -177.743 468.56 -176.445 466.332 C-174.009 462.259 -174.009 462.259 -173 461 C-172.34 461 -171.68 461 -171 461 C-171.33 459.68 -171.66 458.36 -172 457 C-171.01 457.33 -170.02 457.66 -169 458 C-169 457.34 -169 456.68 -169 456 C-168.34 456 -167.68 456 -167 456 C-166.969 455.608 -166.969 455.608 -166.812 453.625 C-166.544 452.759 -166.276 451.892 -166 451 C-163.438 449.688 -163.438 449.688 -161 449 C-161 447.68 -161 446.36 -161 445 C-159.68 445 -158.36 445 -157 445 C-156.67 444.01 -156.34 443.02 -156 442 C-155.34 442 -154.68 442 -154 442 C-153.34 440.02 -152.68 438.04 -152 436 C-151.01 436.33 -150.02 436.66 -149 437 C-149 436.34 -149 435.68 -149 435 C-148.34 434.67 -147.68 434.34 -147 434 C-147 433.01 -147 432.02 -147 431 C-145.02 430.67 -143.04 430.34 -141 430 C-141 429.34 -141 428.68 -141 428 C-140.68 427.856 -140.68 427.856 -139.062 427.125 C-137 426 -137 426 -136 424 C-134.667 423.333 -133.333 422.667 -132 422 C-131.67 421.34 -131.34 420.68 -131 420 C-129.352 419.288 -127.682 418.626 -126 418 C-124.659 417.348 -123.323 416.686 -122 416 C-122 415.34 -122 414.68 -122 414 C-121.01 414 -120.02 414 -119 414 C-119 413.01 -119 412.02 -119 411 C-118.257 410.876 -117.515 410.753 -116.75 410.625 C-114.171 410.039 -112.252 409.367 -110 408 C-109.67 407.34 -109.34 406.68 -109 406 C-107.364 405.03 -105.69 404.123 -104 403.25 C-100.374 401.327 -96.929 399.347 -93.562 397 C-89.343 394.117 -84.938 391.882 -80.344 389.656 C-75.785 387.432 -71.344 384.982 -66.9 382.54 C-62.216 380 -62.216 380 -60 380 C-59.67 378.68 -59.34 377.36 -59 376 C-58.433 376.049 -57.866 376.098 -57.281 376.148 C-54.467 375.965 -52.917 375.057 -50.5 373.625 C-42.602 369 -42.602 369 -39 369 C-39 368.34 -39 367.68 -39 367 C-37.02 366.34 -35.04 365.68 -33 365 C-33 364.34 -33 363.68 -33 363 C-32.01 363 -31.02 363 -30 363 C-30 362.01 -30 361.02 -30 360 C-27.69 359.34 -25.38 358.68 -23 358 C-23 356.68 -23 355.36 -23 354 C-22.01 354 -21.02 354 -20 354 C-19.67 353.34 -19.34 352.68 -19 352 C-17.021 351.273 -15.02 350.602 -13 350 C-13 349.34 -13 348.68 -13 348 C-11.5 346.375 -11.5 346.375 -10 345 C-10.66 344.67 -11.32 344.34 -12 344 C-11.361 343.876 -10.721 343.753 -10.062 343.625 C-9.382 343.419 -8.701 343.212 -8 343 C-7.67 342.34 -7.34 341.68 -7 341 C-6.67 340.866 -6.67 340.866 -5 340.188 C-3 339 -3 339 -2.25 336.375 C-2.168 335.591 -2.085 334.808 -2 334 C-0.68 334.33 0.64 334.66 2 335 C1.67 333.35 1.34 331.7 1 330 C2.32 330.33 3.64 330.66 5 331 C5.133 330.783 5.133 330.783 5.805 329.688 C6.158 329.131 6.511 328.574 6.875 328 C7.223 327.443 7.571 326.886 7.93 326.312 C8.283 325.879 8.636 325.446 9 325 C9.66 325 10.32 325 11 325 C11.33 323.68 11.66 322.36 12 321 C12.66 321 13.32 321 14 321 C14.091 320.62 14.091 320.62 14.551 318.699 C14.802 317.705 15.054 316.711 15.312 315.688 C15.556 314.701 15.8 313.715 16.051 312.699 C17 309.999 17.818 308.79 20 307 C20.66 307.33 21.32 307.66 22 308 C22 307.01 22 306.02 22 305 C22.66 305 23.32 305 24 305 C25.921 299.365 25.921 299.365 26.5 296.688 C26.665 296.131 26.83 295.574 27 295 C27.66 294.67 28.32 294.34 29 294 C29.633 292.371 29.633 292.371 30.125 290.438 C30.293 289.797 30.46 289.156 30.633 288.496 C30.754 288.002 30.875 287.509 31 287 C31.66 287 32.32 287 33 287 C33 285.68 33 284.36 33 283 C33.66 283 34.32 283 35 283 C35.33 281.35 35.66 279.7 36 278 C36.66 278 37.32 278 38 278 C38.062 277.051 38.124 276.102 38.188 275.125 C38.772 270.7 40.828 267.253 43.039 263.43 C44.221 260.441 43.868 259.054 43 256 C42.847 255.212 42.693 254.425 42.535 253.613 C42.379 252.854 42.223 252.095 42.062 251.312 C41.909 250.546 41.756 249.779 41.598 248.988 C41 247 41 247 39 245 C38.709 243.256 38.424 241.51 38.219 239.754 C37.973 237.784 37.535 235.91 37 234 C36.01 234 35.02 234 34 234 C34 233.34 34 232.68 34 232 C34.66 232 35.32 232 36 232 C35.718 230.852 35.424 229.706 35.125 228.562 C34.963 227.924 34.8 227.286 34.633 226.629 C34 225 34 225 32 224 C31.791 222.191 31.587 220.382 31.402 218.57 C30.137 210.488 27.004 202.579 23.734 195.121 C22.977 192.934 22.854 191.295 23 189 C22.34 189 21.68 189 21 189 C20.894 188.223 20.789 187.445 20.68 186.645 C19.886 181.894 18.465 177.307 17.125 172.688 C16.868 171.788 16.612 170.889 16.348 169.963 C14.441 163.337 12.332 156.799 10.051 150.293 C9.807 149.598 9.564 148.903 9.312 148.188 C9.187 147.834 9.187 147.834 8.551 146.043 C7.983 143.936 7.898 142.171 8 140 C7.34 140 6.68 140 6 140 C5.879 139.408 5.758 138.817 5.633 138.207 C4.902 134.763 4.211 131.516 2.875 128.25 C1.882 125.697 1.845 123.716 2 121 C1.34 120.67 0.68 120.34 0 120 C-0.588 117.686 -0.74 115.381 -1 113 C-1.99 113 -2.98 113 -4 113 C-4 113.99 -4 114.98 -4 116 C-4.99 116 -5.98 116 -7 116 C-7.055 116.261 -7.055 116.261 -7.334 117.582 C-8.674 123.778 -10.262 129.887 -11.938 136 C-12.19 136.933 -12.442 137.867 -12.701 138.828 C-14.107 143.976 -15.628 149.049 -17.384 154.088 C-18.555 157.722 -19 161.2 -19 165 C-19.66 165.33 -20.32 165.66 -21 166 C-21.762 167.747 -21.762 167.747 -22.473 170.008 C-22.732 170.83 -22.992 171.653 -23.26 172.5 C-23.525 173.366 -23.79 174.232 -24.062 175.125 C-24.197 175.547 -24.197 175.547 -24.877 177.68 C-26.364 182.457 -27.454 187.026 -28 192 C-28.66 192 -29.32 192 -30 192 C-30.33 194.145 -30.33 194.145 -32 205 C-32.66 205 -33.32 205 -34 205 C-34.062 205.516 -34.062 205.516 -34.375 208.125 C-34.791 211.594 -35.866 214.7 -37 218 C-37.631 220.019 -38.256 222.04 -38.875 224.062 C-38.96 224.341 -38.96 224.341 -39.392 225.749 C-40.105 228.072 -40.816 230.396 -41.525 232.72 C-42.037 234.397 -42.55 236.074 -43.062 237.75 C-43.389 238.819 -43.715 239.887 -44.051 240.988 C-44.894 243.663 -45.808 246.297 -46.75 248.938 C-47.954 252.466 -48.285 255.29 -48 259 C-48.66 259 -49.32 259 -50 259 C-50.139 259.584 -50.278 260.168 -50.422 260.77 C-50.945 262.79 -51.563 264.718 -52.25 266.688 C-53.753 271.132 -55.071 275.619 -56.375 280.125 C-57.971 285.625 -59.654 291.078 -61.5 296.5 C-64.043 303.977 -66.262 311.536 -68.457 319.122 C-69.193 321.667 -69.936 324.209 -70.688 326.75 C-70.898 327.467 -71.108 328.183 -71.324 328.922 C-72 331 -72 331 -72.941 333.258 C-74.315 336.817 -75.266 340.442 -76.25 344.125 C-78.281 351.607 -80.524 359 -82.944 366.366 C-84.616 371.523 -85.913 376.689 -87 382 C-89.125 381.859 -91.25 381.713 -93.375 381.562 C-93.978 381.523 -94.582 381.484 -95.203 381.443 C-99.773 381.113 -99.773 381.113 -102 380 C-101.399 375.43 -100.193 371.212 -98.832 366.812 C-97.384 361.919 -96.201 356.959 -95 352 C-94.34 352 -93.68 352 -93 352 C-92.938 350.989 -92.876 349.979 -92.812 348.938 C-92.22 344.211 -90.705 339.88 -89.15 335.406 C-87.228 329.824 -85.589 324.185 -84 318.5 C-81.367 309.124 -78.419 299.904 -75.199 290.715 C-72.886 284.007 -71.077 277.159 -69.195 270.32 C-67.482 264.102 -65.663 257.929 -63.602 251.816 C-62.011 247.062 -60.499 242.284 -59 237.5 C-57.528 232.801 -56.045 228.108 -54.473 223.441 C-53.029 219.134 -51.721 214.795 -50.438 210.438 C-47.504 200.564 -44.429 190.737 -41.344 180.91 C-38.423 171.603 -35.541 162.287 -32.801 152.924 C-31.699 149.189 -30.448 145.617 -29 142 C-28.18 139.41 -27.435 136.799 -26.688 134.188 C-25.003 128.374 -23.263 122.583 -21.438 116.812 C-19.663 111.193 -17.969 105.558 -16.39 99.88 C-15.668 97.291 -14.91 94.734 -14.051 92.188 C-12.169 86.603 -11.818 82.802 -13 77 C-13.99 77.33 -14.98 77.66 -16 78 C-15.67 76.35 -15.34 74.7 -15 73 C-15.66 73 -16.32 73 -17 73 C-17.33 73.66 -17.66 74.32 -18 75 C-19 73 -19 73 -19.25 70.625 C-20.263 67.079 -21.982 66.012 -25 64 C-25.99 63.67 -26.98 63.34 -28 63 C-28 62.34 -28 61.68 -28 61 C-29.32 61.33 -30.64 61.66 -32 62 C-32 61.34 -32 60.68 -32 60 C-32.99 60.33 -33.98 60.66 -35 61 C-35 60.34 -35 59.68 -35 59 C-36.32 58.67 -37.64 58.34 -39 58 C-39.688 56.188 -39.688 56.188 -40 54 C-39 52.312 -39 52.312 -37 51 C-34.652 50.459 -32.411 50.227 -30 50 C-29.67 48.68 -29.34 47.36 -29 46 C-27.68 46.33 -26.36 46.66 -25 47 C-25.33 45.68 -25.66 44.36 -26 43 C-24.68 43.66 -23.36 44.32 -22 45 C-21.876 44.711 -21.876 44.711 -21.25 43.25 C-20 41 -20 41 -17.875 39 C-16 37 -16 37 -15.75 34.75 C-15.832 34.173 -15.915 33.595 -16 33 C-14.68 32.67 -13.36 32.34 -12 32 C-11.885 31.265 -11.771 30.53 -11.652 29.773 C-10.989 26.955 -10.059 25.085 -8.562 22.625 C-6.334 18.78 -5.01 15.317 -4 11 C-3.34 11 -2.68 11 -2 11 C-2 8.69 -2 6.38 -2 4 C-1.01 4 -0.02 4 1 4 C0.67 2.68 0.34 1.36 0 0 Z M-4 108 C-4 108.99 -4 109.98 -4 111 C-3.34 111 -2.68 111 -2 111 C-2 110.01 -2 109.02 -2 108 C-2.66 108 -3.32 108 -4 108 Z M48 274 C47.208 275.896 46.416 277.792 45.625 279.688 C45.405 280.215 45.405 280.215 44.289 282.887 C43.494 284.807 42.718 286.735 41.973 288.676 C41.082 290.804 40.07 292.576 38.812 294.5 C37.256 297.125 36.98 297.761 37.25 300.938 C37.497 301.618 37.745 302.299 38 303 C37.402 303.186 36.804 303.371 36.188 303.562 C32.967 305.679 32.28 308.472 31 312 C30.608 312.969 30.216 313.939 29.812 314.938 C29.544 315.618 29.276 316.299 29 317 C28.34 317 27.68 317 27 317 C26.856 317.392 26.856 317.392 26.125 319.375 C25 322 25 322 23 324 C23 324.99 23 325.98 23 327 C22.34 327 21.68 327 21 327 C19.692 328.77 18.524 330.507 17.375 332.375 C17.05 332.883 16.725 333.391 16.391 333.914 C14 337.731 14 337.731 14 340 C13.361 340.247 12.721 340.495 12.062 340.75 C10 342 10 342 9.25 344.125 C9.168 344.744 9.085 345.362 9 346 C7.68 346.33 6.36 346.66 5 347 C5 347.99 5 348.98 5 350 C4.443 350.062 3.886 350.124 3.312 350.188 C0.646 351.124 -0.729 352.554 -2.629 354.602 C-4.54 356.55 -6.683 358.153 -8.863 359.789 C-10 361 -10 361 -10 364 C-10.626 364.193 -11.253 364.387 -11.898 364.586 C-12.307 364.716 -12.307 364.716 -14.375 365.375 C-14.781 365.503 -14.781 365.503 -16.836 366.148 C-19 367 -19 367 -21 369 C-21 369.99 -21 370.98 -21 372 C-21.557 371.773 -22.114 371.546 -22.688 371.312 C-25.96 370.87 -27.42 372.065 -30 374 C-30 374.66 -30 375.32 -30 376 C-30.803 376.217 -31.606 376.433 -32.434 376.656 C-37.046 378.194 -40.982 380.909 -45.062 383.5 C-54.554 389.497 -54.554 389.497 -59 391 C-59 391.66 -59 392.32 -59 393 C-59.866 393.247 -60.733 393.495 -61.625 393.75 C-65.227 394.948 -67.958 396.736 -71 399 C-71.33 399.66 -71.66 400.32 -72 401 C-72.99 401 -73.98 401 -75 401 C-75 401.66 -75 402.32 -75 403 C-75.402 403.144 -75.402 403.144 -77.438 403.875 C-80 405 -80 405 -81 407 C-81.99 407 -82.98 407 -84 407 C-84 407.66 -84 408.32 -84 409 C-84.583 409.116 -85.165 409.232 -85.766 409.352 C-88.146 410.042 -89.731 410.951 -91.75 412.375 C-92.057 412.585 -92.057 412.585 -93.609 413.648 C-94.068 414.094 -94.527 414.54 -95 415 C-95 415.99 -95 416.98 -95 418 C-96.32 418.33 -97.64 418.66 -99 419 C-99.33 420.32 -99.66 421.64 -100 423 C-100.557 422.753 -101.114 422.505 -101.688 422.25 C-104 422 -104 422 -106.75 423.75 C-107.493 424.493 -108.235 425.235 -109 426 C-109 426.99 -109 427.98 -109 429 C-109.99 429.33 -110.98 429.66 -112 430 C-113.316 431.41 -113.316 431.41 -114.562 433.062 C-115.816 434.723 -115.816 434.723 -117 436 C-117.66 436 -118.32 436 -119 436 C-119.289 436.639 -119.577 437.279 -119.875 437.938 C-121 440 -121 440 -123 441 C-123.33 441.99 -123.66 442.98 -124 444 C-125.333 444.336 -126.666 444.669 -128 445 C-129.484 446.523 -129.484 446.523 -130.75 448.375 C-130.964 448.678 -130.964 448.678 -132.047 450.211 C-133 452 -133 452 -133 455 C-133.66 455 -134.32 455 -135 455 C-135 455.66 -135 456.32 -135 457 C-135.99 457.33 -136.98 457.66 -138 458 C-138 459.65 -138 461.3 -138 463 C-138.99 463 -139.98 463 -141 463 C-141 464.32 -141 465.64 -141 467 C-141.639 467.186 -142.279 467.371 -142.938 467.562 C-145 469 -145 469 -145.488 470.691 C-145.727 472.453 -145.869 474.227 -146 476 C-146.99 476 -147.98 476 -149 476 C-149 476.99 -149 477.98 -149 479 C-149.33 479.33 -149.66 479.66 -150 480 C-151.727 482.032 -152.004 482.823 -151.938 485.562 C-151.958 486.367 -151.979 487.171 -152 488 C-153 488.667 -154 489.334 -155 490 C-155.969 492.45 -156.77 494.792 -157.5 497.312 C-157.714 498.027 -157.929 498.741 -158.149 499.476 C-160.45 507.278 -162.544 515.177 -163.625 523.25 C-164 526 -164 526 -165 527 C-167.698 547.282 -167.822 571.871 -159.812 590.977 C-158.748 593.628 -157.924 596.338 -157.062 599.062 C-155.49 603.804 -153.838 607.881 -151 612 C-150.01 612.33 -149.02 612.66 -148 613 C-147.938 613.681 -147.876 614.361 -147.812 615.062 C-146.744 618.926 -144.844 622.148 -142 625 C-141.01 625 -140.02 625 -139 625 C-139 626.32 -139 627.64 -139 629 C-138.01 629 -137.02 629 -136 629 C-135.67 629.99 -135.34 630.98 -135 632 C-134.34 632 -133.68 632 -133 632 C-132.835 632.495 -132.835 632.495 -132 635 C-131.01 635 -130.02 635 -129 635 C-128.835 635.495 -128.835 635.495 -128 638 C-123.195 641.864 -116.717 643.897 -111 646 C-110.076 646.354 -109.151 646.709 -108.199 647.074 C-104.384 648.178 -100.826 648.497 -96.875 648.688 C-96.126 648.724 -95.377 648.761 -94.605 648.799 C-83.092 649.28 -74.356 647.976 -64 643 C-64 642.01 -64 641.02 -64 640 C-62.68 639.67 -61.36 639.34 -60 639 C-60 638.34 -60 637.68 -60 637 C-59.42 636.914 -58.84 636.827 -58.242 636.738 C-52.438 635.694 -49.137 634.243 -45 630 C-45 629.34 -45 628.68 -45 628 C-44.01 628 -43.02 628 -42 628 C-40.176 626.32 -40.176 626.32 -38.312 624.125 C-37.69 623.406 -37.067 622.686 -36.426 621.945 C-35 620 -35 620 -35 618 C-34.01 617.67 -33.02 617.34 -32 617 C-30.613 615.223 -30.613 615.223 -29.312 613.062 C-28.876 612.352 -28.439 611.642 -27.988 610.91 C-27 609 -27 609 -27 607 C-26.34 607 -25.68 607 -25 607 C-25 605.68 -25 604.36 -25 603 C-24.402 602.938 -23.804 602.876 -23.188 602.812 C-20.077 601.657 -19.396 599.931 -18 597 C-18 596.01 -18 595.02 -18 594 C-17.01 593.67 -16.02 593.34 -15 593 C-12.845 589.353 -11.621 586.223 -11 582 C-10.34 582 -9.68 582 -9 582 C-6.83 577.869 -4.855 573.736 -3.188 569.375 C-2.006 566.309 -0.708 563.372 0.809 560.461 C1.128 559.847 1.447 559.233 1.776 558.6 C2.411 557.393 3.057 556.192 3.714 554.998 C5.725 551.178 6.348 548.42 6 544 C6.99 544 7.98 544 9 544 C9.673 542.399 10.338 540.794 11 539.188 C11.371 538.294 11.743 537.401 12.125 536.48 C13 534 13 534 13 531 C13.66 531 14.32 531 15 531 C15.33 528.69 15.66 526.38 16 524 C16.66 524 17.32 524 18 524 C20.013 517.459 20.013 517.459 19.938 514.75 C20.026 512.274 21.263 511.737 23 510 C25.195 506.036 26.418 502.594 26 498 C26.99 497.67 27.98 497.34 29 497 C35.036 487.864 35.862 478.996 35.741 468.327 C35.746 466.802 35.754 465.276 35.764 463.75 C35.783 459.649 35.767 455.549 35.744 451.449 C35.727 447.146 35.746 442.842 35.762 438.539 C35.785 430.407 35.781 422.275 35.764 414.143 C35.736 399.548 35.756 384.954 35.787 370.36 C35.796 365.239 35.794 360.12 35.78 354.999 C35.773 351.826 35.774 348.654 35.777 345.481 C35.777 344.006 35.773 342.531 35.765 341.057 C35.755 339.05 35.757 337.044 35.762 335.037 C35.76 333.913 35.757 332.789 35.755 331.63 C36 329 36 329 38 327 C39.656 326.988 39.656 326.988 41.5 327.312 C42.108 327.412 42.717 327.511 43.344 327.613 C45 328 45 328 47 329 C47.33 370.91 47.66 412.82 48 456 C51.394 454.303 53.389 452.929 56.125 450.438 C59.806 447.097 59.806 447.097 62 446 C62 445.34 62 444.68 62 444 C62.763 443.753 63.526 443.505 64.312 443.25 C66.379 442.572 68.401 441.842 70.426 441.047 C76.388 438.734 82.026 437.32 88.371 436.492 C90.953 436.009 92.778 435.387 95 434 C95.33 433.34 95.66 432.68 96 432 C96.33 432.66 96.66 433.32 97 434 C97.66 434 98.32 434 99 434 C99.382 428.016 98.091 423.573 96 418 C95.271 415.979 94.541 413.958 93.812 411.938 C93.21 410.291 92.606 408.645 92 407 C91.34 407 90.68 407 90 407 C90.21 406.334 90.42 405.667 90.637 404.98 C91.124 400.982 90.089 398.079 88.812 394.312 C88.697 393.957 88.697 393.957 88.112 392.155 C86.837 388.29 85.445 384.506 83.875 380.75 C82.463 377.365 81.464 374.07 80.625 370.5 C78.822 362.831 76.229 355.436 73.679 347.989 C72.772 345.331 71.884 342.666 71 340 C70.01 340 69.02 340 68 340 C68.113 339.495 68.113 339.495 68.688 336.938 C69.35 332.551 67.983 329.887 66 326 C65.34 326 64.68 326 64 326 C64.206 325.113 64.413 324.226 64.625 323.312 C65.036 319.679 64.501 318.253 63 315 C62.631 313.341 62.287 311.675 62 310 C61.34 310 60.68 310 60 310 C59.918 308.886 59.835 307.773 59.75 306.625 C59.22 302.174 57.683 298.455 55.84 294.395 C54.924 291.784 54.849 289.746 55 287 C54.34 287 53.68 287 53 287 C52.876 285.969 52.753 284.938 52.625 283.875 C52.135 280.389 51.208 277.301 50 274 C49.34 274 48.68 274 48 274 Z M18 310 C18 310.66 18 311.32 18 312 C18.66 312 19.32 312 20 312 C20 311.34 20 310.68 20 310 C19.34 310 18.68 310 18 310 Z M-37 639 C-37 639.66 -37 640.32 -37 641 C-36.34 641 -35.68 641 -35 641 C-35 640.34 -35 639.68 -35 639 C-35.66 639 -36.32 639 -37 639 Z " fill="#60422C" transform="translate(748,401)" />
</svg>