<svg xmlns="http://www.w3.org/2000/svg" viewBox="515 355 526 727" role="img" aria-labelledby="title desc">
  <title>Allay House Monogram</title>
  <desc>Vector-traced Allay House AH monogram from the supplied artwork.</desc>
  <path d="M 748 379 L 746 382 L 744 390 L 737 403 L 737 405 L 735 407 L 734 410 L 729 416 L 729 417 L 721 425 L 720 425 L 718 427 L 712 430 L 707 431 L 707 434 L 711 434 L 714 436 L 716 436 L 720 438 L 722 440 L 723 440 L 731 448 L 734 454 L 734 456 L 736 460 L 736 463 L 735 464 L 734 470 L 733 471 L 733 473 L 731 477 L 731 480 L 730 481 L 730 483 L 728 487 L 728 490 L 726 494 L 726 497 L 725 498 L 725 500 L 724 501 L 724 503 L 723 504 L 723 506 L 722 507 L 722 509 L 720 513 L 720 516 L 718 520 L 718 523 L 717 524 L 717 526 L 716 527 L 716 529 L 715 530 L 715 532 L 713 536 L 713 539 L 712 540 L 712 542 L 710 546 L 710 549 L 708 552 L 707 559 L 706 560 L 706 562 L 705 563 L 705 565 L 704 566 L 704 568 L 703 569 L 703 571 L 701 575 L 701 578 L 700 579 L 700 581 L 698 585 L 698 588 L 697 589 L 697 591 L 696 592 L 696 594 L 694 598 L 694 601 L 693 602 L 693 604 L 692 605 L 692 607 L 690 611 L 690 614 L 687 620 L 687 623 L 686 624 L 686 626 L 684 630 L 684 633 L 682 637 L 682 640 L 679 646 L 678 652 L 676 656 L 676 659 L 675 660 L 675 662 L 674 663 L 674 665 L 673 666 L 673 668 L 672 669 L 672 671 L 670 675 L 670 678 L 669 679 L 669 681 L 667 685 L 666 692 L 665 693 L 665 695 L 664 696 L 664 698 L 663 699 L 663 701 L 662 702 L 662 704 L 661 705 L 661 707 L 660 708 L 660 710 L 659 711 L 659 713 L 657 717 L 657 721 L 656 722 L 656 724 L 655 725 L 655 727 L 654 728 L 654 730 L 653 731 L 653 733 L 652 734 L 652 736 L 650 740 L 650 743 L 649 744 L 649 746 L 648 747 L 648 749 L 646 753 L 646 756 L 644 760 L 655 760 L 655 758 L 657 754 L 657 751 L 659 748 L 659 745 L 660 744 L 660 742 L 661 741 L 661 739 L 663 735 L 663 732 L 665 729 L 666 723 L 667 722 L 667 720 L 669 716 L 670 709 L 671 708 L 671 706 L 672 705 L 672 703 L 673 702 L 673 700 L 674 699 L 674 697 L 675 696 L 675 694 L 677 690 L 677 687 L 679 684 L 679 681 L 681 677 L 681 674 L 682 673 L 682 671 L 683 670 L 683 668 L 684 667 L 684 665 L 686 661 L 686 658 L 687 657 L 687 655 L 688 654 L 688 652 L 690 648 L 690 645 L 692 641 L 692 638 L 693 637 L 694 632 L 696 629 L 696 626 L 697 625 L 698 619 L 700 616 L 701 609 L 702 608 L 702 606 L 703 605 L 703 603 L 704 602 L 704 600 L 706 596 L 706 593 L 707 592 L 707 590 L 708 589 L 708 587 L 710 583 L 710 580 L 711 579 L 711 577 L 713 573 L 713 570 L 714 569 L 714 567 L 715 566 L 715 564 L 717 560 L 717 557 L 718 556 L 718 554 L 719 553 L 719 551 L 721 547 L 721 544 L 723 541 L 724 534 L 725 533 L 725 531 L 727 527 L 727 524 L 728 523 L 728 521 L 730 517 L 730 514 L 731 513 L 731 511 L 733 507 L 733 504 L 734 503 L 734 501 L 736 497 L 737 490 L 738 489 L 738 487 L 739 486 L 739 484 L 741 480 L 743 482 L 744 486 L 745 487 L 745 489 L 746 490 L 746 493 L 748 497 L 748 500 L 750 503 L 750 506 L 752 510 L 752 513 L 755 519 L 755 522 L 756 523 L 756 525 L 758 529 L 758 532 L 759 533 L 759 535 L 760 536 L 760 538 L 762 542 L 762 545 L 764 548 L 764 551 L 765 552 L 765 554 L 767 558 L 767 561 L 768 562 L 768 564 L 769 565 L 769 567 L 770 568 L 770 570 L 772 574 L 772 577 L 773 578 L 773 580 L 774 581 L 774 583 L 775 584 L 775 586 L 776 587 L 776 589 L 777 590 L 777 592 L 779 596 L 779 599 L 781 602 L 781 605 L 782 606 L 782 608 L 783 609 L 783 611 L 784 612 L 784 614 L 785 615 L 785 617 L 787 621 L 787 624 L 788 625 L 788 627 L 789 628 L 789 630 L 791 634 L 791 637 L 792 638 L 791 644 L 786 654 L 786 656 L 784 659 L 784 661 L 782 663 L 781 667 L 778 671 L 778 673 L 776 675 L 771 686 L 764 696 L 763 699 L 758 705 L 758 706 L 754 710 L 754 711 L 739 727 L 738 727 L 724 740 L 720 742 L 717 745 L 716 745 L 711 749 L 706 751 L 696 758 L 692 759 L 690 761 L 685 763 L 683 765 L 679 767 L 677 767 L 675 769 L 655 779 L 653 781 L 650 782 L 648 784 L 643 786 L 633 793 L 630 794 L 628 796 L 624 798 L 621 801 L 618 802 L 615 805 L 614 805 L 611 808 L 610 808 L 607 811 L 606 811 L 601 816 L 600 816 L 592 824 L 591 824 L 586 829 L 586 830 L 583 832 L 583 833 L 578 838 L 578 839 L 574 843 L 572 847 L 569 850 L 568 853 L 566 855 L 562 863 L 560 865 L 553 879 L 553 881 L 550 887 L 550 889 L 549 890 L 549 892 L 548 893 L 548 895 L 546 899 L 546 902 L 544 906 L 544 909 L 543 910 L 543 915 L 542 916 L 542 921 L 541 922 L 541 928 L 540 929 L 540 939 L 539 940 L 539 949 L 540 950 L 540 962 L 541 963 L 541 970 L 542 971 L 543 981 L 544 982 L 544 985 L 545 986 L 545 988 L 546 989 L 548 997 L 550 1000 L 550 1002 L 556 1014 L 558 1016 L 562 1023 L 565 1026 L 565 1027 L 577 1039 L 578 1039 L 582 1043 L 585 1044 L 592 1049 L 594 1049 L 599 1052 L 601 1052 L 605 1054 L 608 1054 L 609 1055 L 612 1055 L 613 1056 L 619 1056 L 620 1057 L 644 1057 L 645 1056 L 655 1055 L 659 1053 L 662 1053 L 663 1052 L 668 1051 L 678 1046 L 680 1044 L 683 1043 L 685 1041 L 689 1039 L 692 1036 L 693 1036 L 694 1034 L 698 1032 L 707 1023 L 709 1022 L 709 1021 L 717 1013 L 717 1012 L 720 1009 L 720 1008 L 725 1003 L 725 1002 L 733 991 L 737 983 L 741 978 L 741 976 L 743 974 L 747 966 L 747 964 L 754 951 L 754 949 L 761 935 L 761 933 L 763 930 L 763 928 L 765 925 L 765 923 L 767 920 L 767 918 L 769 915 L 769 913 L 773 905 L 773 902 L 776 896 L 776 894 L 778 892 L 779 893 L 779 897 L 778 898 L 778 911 L 777 912 L 777 933 L 776 934 L 776 1023 L 775 1024 L 775 1031 L 774 1032 L 774 1035 L 773 1036 L 773 1038 L 772 1039 L 771 1043 L 763 1050 L 759 1051 L 758 1052 L 754 1052 L 753 1053 L 753 1055 L 754 1056 L 756 1055 L 826 1055 L 826 1053 L 825 1052 L 821 1052 L 820 1051 L 816 1050 L 808 1043 L 807 1039 L 804 1033 L 804 1029 L 803 1028 L 803 1022 L 802 1021 L 802 881 L 803 880 L 803 869 L 804 868 L 804 861 L 805 860 L 805 856 L 807 852 L 807 848 L 810 843 L 810 841 L 812 839 L 812 838 L 819 831 L 820 831 L 824 828 L 832 827 L 833 826 L 850 826 L 851 827 L 852 833 L 853 834 L 854 840 L 855 841 L 855 844 L 856 845 L 856 847 L 858 851 L 858 854 L 859 855 L 860 861 L 862 865 L 863 872 L 865 876 L 866 883 L 867 884 L 867 886 L 869 890 L 869 895 L 870 896 L 870 899 L 871 900 L 871 904 L 872 905 L 872 913 L 873 914 L 873 916 L 872 917 L 872 922 L 871 923 L 871 925 L 869 929 L 867 931 L 867 932 L 863 935 L 859 936 L 858 937 L 855 937 L 854 939 L 856 941 L 928 941 L 929 939 L 927 937 L 925 937 L 921 935 L 914 929 L 909 920 L 909 918 L 908 917 L 908 915 L 907 914 L 907 912 L 905 908 L 905 905 L 904 904 L 904 901 L 903 900 L 903 897 L 902 896 L 902 892 L 901 891 L 901 888 L 899 884 L 898 877 L 896 873 L 895 865 L 894 864 L 894 861 L 893 860 L 893 857 L 892 856 L 892 853 L 890 849 L 890 846 L 889 845 L 889 842 L 888 841 L 888 838 L 887 837 L 887 834 L 886 833 L 886 829 L 885 828 L 887 826 L 916 826 L 917 827 L 954 827 L 955 828 L 968 828 L 970 830 L 970 1018 L 969 1019 L 969 1028 L 968 1029 L 967 1037 L 966 1038 L 965 1042 L 962 1045 L 962 1046 L 957 1050 L 953 1051 L 952 1052 L 949 1052 L 948 1053 L 948 1055 L 1003 1055 L 1004 1056 L 1005 1055 L 1007 1055 L 1008 1056 L 1009 1055 L 1016 1055 L 1016 1053 L 1014 1052 L 1011 1052 L 1005 1049 L 1000 1044 L 998 1040 L 997 1035 L 996 1034 L 996 1030 L 995 1029 L 995 1020 L 994 1019 L 994 638 L 995 637 L 995 631 L 996 630 L 996 626 L 997 625 L 997 623 L 998 622 L 998 620 L 1000 616 L 1006 610 L 1010 608 L 1015 607 L 1016 605 L 1015 604 L 948 604 L 948 607 L 951 607 L 952 608 L 956 609 L 963 615 L 967 623 L 967 628 L 968 629 L 968 633 L 969 634 L 969 644 L 970 645 L 970 815 L 968 817 L 944 817 L 943 818 L 934 818 L 933 817 L 913 817 L 912 818 L 911 817 L 884 817 L 882 815 L 882 813 L 881 812 L 881 809 L 880 808 L 880 806 L 878 802 L 877 794 L 876 793 L 876 791 L 874 787 L 874 784 L 872 780 L 872 777 L 870 773 L 870 770 L 868 766 L 868 763 L 867 762 L 867 760 L 866 759 L 866 757 L 864 753 L 864 750 L 863 749 L 863 747 L 861 743 L 861 740 L 860 739 L 860 737 L 858 733 L 858 730 L 857 729 L 857 727 L 856 726 L 856 724 L 854 720 L 854 717 L 853 716 L 853 714 L 851 710 L 851 707 L 850 706 L 850 704 L 849 703 L 849 701 L 848 700 L 848 698 L 847 697 L 847 695 L 845 691 L 845 688 L 844 687 L 844 685 L 843 684 L 843 682 L 841 678 L 841 675 L 840 674 L 840 672 L 839 671 L 839 669 L 837 665 L 837 662 L 834 656 L 834 652 L 833 651 L 833 649 L 832 648 L 832 646 L 831 645 L 831 643 L 830 642 L 830 640 L 829 639 L 829 637 L 827 633 L 827 630 L 826 629 L 826 627 L 824 623 L 824 620 L 821 614 L 821 611 L 820 610 L 820 608 L 819 607 L 819 605 L 817 601 L 817 598 L 816 597 L 816 595 L 815 594 L 815 592 L 814 591 L 814 589 L 813 588 L 813 586 L 812 585 L 812 583 L 810 579 L 810 576 L 809 575 L 809 573 L 807 569 L 807 566 L 806 565 L 806 563 L 805 562 L 805 560 L 804 559 L 804 557 L 803 556 L 803 554 L 801 550 L 801 547 L 800 546 L 800 544 L 798 540 L 798 537 L 797 536 L 797 534 L 796 533 L 796 531 L 795 530 L 795 528 L 794 527 L 794 525 L 793 524 L 793 522 L 791 518 L 791 515 L 789 511 L 789 508 L 788 507 L 788 505 L 787 504 L 787 502 L 786 501 L 786 499 L 785 498 L 785 496 L 783 492 L 783 489 L 781 486 L 780 480 L 779 479 L 779 477 L 777 473 L 777 470 L 776 469 L 776 467 L 775 466 L 775 464 L 774 463 L 774 461 L 773 460 L 773 458 L 771 454 L 771 451 L 769 447 L 769 444 L 768 443 L 768 441 L 767 440 L 767 438 L 766 437 L 766 435 L 765 434 L 765 432 L 763 428 L 763 424 L 761 421 L 761 418 L 760 417 L 760 415 L 759 414 L 759 412 L 757 408 L 757 405 L 756 404 L 756 402 L 754 398 L 754 394 L 753 393 L 753 391 L 752 390 L 752 388 L 750 384 L 750 381 L 749 379 Z M 795 650 L 797 653 L 797 655 L 799 659 L 799 662 L 802 668 L 802 671 L 803 672 L 803 674 L 804 675 L 804 677 L 806 681 L 806 684 L 808 687 L 808 691 L 809 692 L 810 697 L 812 700 L 812 703 L 814 706 L 814 708 L 815 709 L 815 711 L 817 715 L 817 718 L 818 719 L 818 721 L 819 722 L 819 724 L 820 725 L 820 727 L 822 731 L 822 734 L 824 737 L 825 743 L 826 744 L 826 746 L 827 747 L 827 749 L 828 750 L 828 752 L 829 753 L 829 755 L 830 756 L 830 758 L 832 762 L 832 765 L 833 766 L 833 768 L 835 772 L 835 775 L 836 776 L 836 778 L 837 779 L 837 781 L 839 785 L 839 788 L 842 794 L 842 797 L 844 801 L 844 804 L 846 808 L 846 811 L 847 812 L 847 815 L 848 817 L 847 818 L 838 819 L 837 820 L 834 820 L 833 821 L 824 822 L 821 824 L 816 825 L 808 829 L 804 833 L 803 833 L 798 838 L 798 839 L 793 845 L 791 844 L 791 838 L 792 837 L 791 835 L 791 718 L 792 716 L 791 715 L 791 710 L 783 710 L 782 711 L 782 867 L 778 875 L 778 877 L 774 884 L 774 886 L 769 896 L 769 898 L 765 905 L 764 910 L 755 928 L 754 933 L 752 935 L 750 939 L 750 941 L 748 943 L 748 945 L 746 947 L 746 949 L 742 956 L 742 958 L 739 962 L 730 980 L 728 982 L 728 983 L 726 985 L 722 992 L 719 995 L 719 996 L 716 999 L 716 1000 L 712 1004 L 712 1005 L 700 1017 L 699 1017 L 695 1021 L 694 1021 L 691 1024 L 688 1025 L 683 1029 L 679 1030 L 673 1033 L 665 1034 L 664 1035 L 643 1035 L 642 1034 L 637 1034 L 636 1033 L 633 1033 L 630 1031 L 625 1030 L 621 1027 L 615 1024 L 612 1021 L 611 1021 L 598 1008 L 598 1007 L 592 999 L 585 985 L 585 983 L 582 977 L 582 974 L 580 970 L 579 963 L 578 962 L 577 948 L 576 947 L 576 917 L 577 916 L 577 910 L 578 909 L 578 902 L 579 901 L 579 898 L 580 897 L 580 894 L 581 893 L 582 886 L 585 880 L 585 878 L 588 872 L 588 870 L 591 865 L 591 863 L 593 859 L 595 857 L 597 852 L 599 850 L 600 847 L 602 845 L 603 842 L 609 835 L 609 834 L 612 831 L 612 830 L 619 823 L 619 822 L 641 801 L 642 801 L 649 795 L 653 793 L 656 790 L 657 790 L 665 784 L 668 783 L 676 777 L 681 775 L 686 771 L 691 769 L 693 767 L 707 760 L 709 758 L 712 757 L 714 755 L 718 753 L 721 750 L 727 747 L 730 744 L 731 744 L 734 741 L 735 741 L 739 737 L 740 737 L 756 721 L 756 720 L 762 713 L 762 712 L 770 701 L 771 698 L 773 696 L 777 687 L 780 683 L 781 679 L 783 677 L 783 675 L 789 663 L 791 655 L 793 651 Z" fill="#ffffff" fill-rule="evenodd"/>
</svg>
